<svg width="84" height="90" viewBox="0 0 84 90" fill="none" xmlns="http://www.w3.org/2000/svg">
<path d="M54.0678 77.0748C54.0678 76.5775 53.9468 76.1086 53.7327 75.6956H73.5927C79.3931 75.6956 82.2237 68.5841 77.947 64.62L71.07 58.2457V37.6522C71.07 24.2258 61.9287 12.9427 49.5266 9.63439C49.3579 5.93509 46.2993 3 42.5667 3C38.9296 3 35.9324 5.78694 35.6255 9.35222C22.6408 12.2515 12.93 23.814 12.93 37.6522V58.2457L6.05298 64.62C1.77631 68.584 4.60693 75.6956 10.4073 75.6956H31.4007C31.1866 76.1086 31.0657 76.5775 31.0657 77.0748C31.0657 80.339 32.4454 82.9724 34.7634 84.6991C36.9711 86.3437 39.792 87 42.5667 87C45.3415 87 48.1624 86.3437 50.3701 84.6991C52.6881 82.9724 54.0678 80.339 54.0678 77.0748Z" stroke="#0078FF" stroke-width="8" stroke-linejoin="round"/>
</svg>
