<svg width="24" height="26" viewBox="0 0 24 26" fill="none" xmlns="http://www.w3.org/2000/svg">
<path d="M8.68886 21.7534C8.7246 22.6813 9.14133 23.4535 9.82948 23.9661C10.5036 24.4683 11.3392 24.652 12.1197 24.652C12.9001 24.652 13.7358 24.4683 14.4099 23.9661C15.098 23.4535 15.5148 22.6813 15.5505 21.7534H20.0751C21.9999 21.7534 22.9424 19.3917 21.5208 18.074L19.9125 16.5833V11.5144C19.9125 7.9609 17.569 4.95882 14.3439 3.95338C14.131 2.91912 13.2137 2.14488 12.1197 2.14488C11.0576 2.14488 10.1622 2.87451 9.91594 3.86334C6.53122 4.76796 4.03619 7.84787 4.03619 11.5144V16.5833L2.42793 18.074C1.0063 19.3917 1.94879 21.7534 3.87366 21.7534H8.68886Z" stroke="#C8CED9" stroke-width="2.50712" stroke-linejoin="round"/>
</svg>
