<svg width="35" height="39" viewBox="0 0 35 39" fill="none" xmlns="http://www.w3.org/2000/svg">
<mask id="path-1-inside-1_3772_15333" fill="white">
<path fill-rule="evenodd" clip-rule="evenodd" d="M31.6001 15.8001C31.6001 20.0414 29.9289 23.8925 27.2091 26.7306L33.7169 32.9269C35.1257 34.2683 35.1804 36.4978 33.839 37.9066C32.4977 39.3154 30.2682 39.37 28.8594 38.0287L21.1371 30.676C19.4699 31.2742 17.6731 31.6001 15.8001 31.6001C7.07393 31.6001 0 24.5262 0 15.8001C0 7.07393 7.07393 0 15.8001 0C24.5262 0 31.6001 7.07393 31.6001 15.8001ZM15.7996 25.8547C21.3526 25.8547 25.8541 21.3531 25.8541 15.8001C25.8541 10.2471 21.3526 5.7455 15.7996 5.7455C10.2466 5.7455 5.74498 10.2471 5.74498 15.8001C5.74498 21.3531 10.2466 25.8547 15.7996 25.8547Z"/>
</mask>
<path fill-rule="evenodd" clip-rule="evenodd" d="M31.6001 15.8001C31.6001 20.0414 29.9289 23.8925 27.2091 26.7306L33.7169 32.9269C35.1257 34.2683 35.1804 36.4978 33.839 37.9066C32.4977 39.3154 30.2682 39.37 28.8594 38.0287L21.1371 30.676C19.4699 31.2742 17.6731 31.6001 15.8001 31.6001C7.07393 31.6001 0 24.5262 0 15.8001C0 7.07393 7.07393 0 15.8001 0C24.5262 0 31.6001 7.07393 31.6001 15.8001ZM15.7996 25.8547C21.3526 25.8547 25.8541 21.3531 25.8541 15.8001C25.8541 10.2471 21.3526 5.7455 15.7996 5.7455C10.2466 5.7455 5.74498 10.2471 5.74498 15.8001C5.74498 21.3531 10.2466 25.8547 15.7996 25.8547Z" fill="#0078FF"/>
<path d="M27.2091 26.7306L26.7037 26.2463L26.2178 26.7533L26.7264 27.2376L27.2091 26.7306ZM33.7169 32.9269L34.1996 32.42V32.42L33.7169 32.9269ZM33.839 37.9066L33.3321 37.4239H33.3321L33.839 37.9066ZM28.8594 38.0287L28.3767 38.5356H28.3767L28.8594 38.0287ZM21.1371 30.676L21.6198 30.169L21.3071 29.8713L20.9007 30.0171L21.1371 30.676ZM27.7145 27.2149C30.5542 24.2517 32.3001 20.229 32.3001 15.8001H30.9001C30.9001 19.8538 29.3036 23.5332 26.7037 26.2463L27.7145 27.2149ZM34.1996 32.42L27.6918 26.2237L26.7264 27.2376L33.2342 33.4339L34.1996 32.42ZM34.346 38.3892C35.9539 36.7005 35.8884 34.0279 34.1996 32.42L33.2342 33.4339C34.363 34.5087 34.4069 36.295 33.3321 37.4239L34.346 38.3892ZM28.3767 38.5356C30.0655 40.1436 32.7381 40.078 34.346 38.3892L33.3321 37.4239C32.2573 38.5527 30.4709 38.5965 29.3421 37.5217L28.3767 38.5356ZM20.6544 31.183L28.3767 38.5356L29.3421 37.5217L21.6198 30.169L20.6544 31.183ZM15.8001 32.3001C17.7548 32.3001 19.6316 31.9599 21.3735 31.3349L20.9007 30.0171C19.3083 30.5885 17.5913 30.9001 15.8001 30.9001V32.3001ZM-0.7 15.8001C-0.7 24.9128 6.68733 32.3001 15.8001 32.3001V30.9001C7.46053 30.9001 0.7 24.1396 0.7 15.8001H-0.7ZM15.8001 -0.7C6.68733 -0.7 -0.7 6.68733 -0.7 15.8001H0.7C0.7 7.46053 7.46053 0.7 15.8001 0.7V-0.7ZM32.3001 15.8001C32.3001 6.68733 24.9128 -0.7 15.8001 -0.7V0.7C24.1396 0.7 30.9001 7.46053 30.9001 15.8001H32.3001ZM25.1541 15.8001C25.1541 20.9665 20.966 25.1547 15.7996 25.1547V26.5547C21.7392 26.5547 26.5541 21.7397 26.5541 15.8001H25.1541ZM15.7996 6.4455C20.966 6.4455 25.1541 10.6337 25.1541 15.8001H26.5541C26.5541 9.86049 21.7392 5.0455 15.7996 5.0455V6.4455ZM6.44498 15.8001C6.44498 10.6337 10.6332 6.4455 15.7996 6.4455V5.0455C9.85997 5.0455 5.04498 9.86049 5.04498 15.8001H6.44498ZM15.7996 25.1547C10.6332 25.1547 6.44498 20.9665 6.44498 15.8001H5.04498C5.04498 21.7397 9.85997 26.5547 15.7996 26.5547V25.1547Z" fill="#F4F4F4" mask="url(#path-1-inside-1_3772_15333)"/>
</svg>
