<svg width="61" height="68" viewBox="0 0 61 68" fill="none" xmlns="http://www.w3.org/2000/svg">
<path fill-rule="evenodd" clip-rule="evenodd" d="M55 27.5C55 34.8821 52.0912 41.5849 47.3573 46.5247L58.6843 57.3094C61.1363 59.644 61.2314 63.5244 58.8968 65.9764C56.5621 68.4284 52.6818 68.5236 50.2298 66.1889L36.7891 53.3916C33.8874 54.4328 30.7599 55 27.5 55C12.3122 55 0 42.6878 0 27.5C0 12.3122 12.3122 0 27.5 0C42.6878 0 55 12.3122 55 27.5ZM27.5 45C37.165 45 45 37.165 45 27.5C45 17.835 37.165 10 27.5 10C17.835 10 10 17.835 10 27.5C10 37.165 17.835 45 27.5 45Z" fill="#0078FF"/>
</svg>
